<?xml version="1.0" encoding="UTF-8" standalone="no"?>
<!-- Created with Inkscape (http://www.inkscape.org/) -->

<svg
   width="208.22079mm"
   height="18.8722mm"
   viewBox="0 0 208.2208 18.872201"
   version="1.1"
   id="svg5"
   sodipodi:docname="lichtfeld-logo-white.svg"
   inkscape:version="1.1.2 (b8e25be833, 2022-02-05)"
   xmlns:inkscape="http://www.inkscape.org/namespaces/inkscape"
   xmlns:sodipodi="http://sodipodi.sourceforge.net/DTD/sodipodi-0.dtd"
   xmlns="http://www.w3.org/2000/svg"
   xmlns:svg="http://www.w3.org/2000/svg">
  <sodipodi:namedview
     id="namedview57"
     pagecolor="#ffffff"
     bordercolor="#666666"
     borderopacity="1.0"
     inkscape:pageshadow="2"
     inkscape:pageopacity="0.0"
     inkscape:pagecheckerboard="0"
     inkscape:document-units="mm"
     showgrid="false"
     fit-margin-top="0"
     fit-margin-left="0"
     fit-margin-right="0"
     fit-margin-bottom="0"
     inkscape:zoom="1.8457908"
     inkscape:cx="428.81349"
     inkscape:cy="183.66112"
     inkscape:window-width="3840"
     inkscape:window-height="2071"
     inkscape:window-x="-9"
     inkscape:window-y="-9"
     inkscape:window-maximized="1"
     inkscape:current-layer="svg5" />
  <defs
     id="defs2" />
  <path
     d="M 26.38223,18.5928 V 1.1176 h 1.8542 v 17.4752 z m 1.2192,0 V 16.891 h 9.6266 v 1.7018 z"
     style="font-weight:300;font-size:25.4px;line-height:1.25;font-family:Outfit;-inkscape-font-specification:'Outfit Light';stroke-width:0.264583;fill:#ffffff;fill-opacity:1"
     id="path1140" />
  <path
     d="M 40.022052,18.5928 V 6.6548 h 1.8034 v 11.938 z m 0.889,-14.5288 q -0.508,0 -0.8636,-0.3556 -0.3556,-0.381 -0.3556,-0.889 0,-0.5334 0.3556,-0.889 0.3556,-0.3556 0.8636,-0.3556 0.5588,0 0.889,0.3556 0.3556,0.3556 0.3556,0.889 0,0.508 -0.3556,0.889 -0.3302,0.3556 -0.889,0.3556 z"
     style="font-weight:300;font-size:25.4px;line-height:1.25;font-family:Outfit;-inkscape-font-specification:'Outfit Light';stroke-width:0.264583;fill:#ffffff;fill-opacity:1"
     id="path1137" />
  <path
     d="m 50.867836,18.8468 q -1.7526,0 -3.175,-0.8128 -1.397,-0.8382 -2.2352,-2.2606 -0.8128,-1.4224 -0.8128,-3.175 0,-1.7526 0.8128,-3.1496 0.8382,-1.4224 2.2352,-2.2352 1.4224,-0.8128 3.175,-0.8128 1.3462,0 2.5146,0.508 1.1684,0.508 1.9812,1.4224 l -1.1684,1.1938 q -0.6096,-0.6858 -1.4732,-1.0414 -0.8636,-0.381 -1.8542,-0.381 -1.27,0 -2.2606,0.5842 -0.9906,0.5842 -1.5494,1.6002 -0.5588,0.9906 -0.5588,2.3114 0,1.2954 0.5588,2.3368 0.5588,1.016 1.5494,1.6002 0.9906,0.5842 2.2606,0.5842 1.016,0 1.8796,-0.3556 0.8636,-0.381 1.4732,-1.0668 l 1.1938,1.1938 q -0.8382,0.9398 -2.032,1.4478 -1.1684,0.508 -2.5146,0.508 z"
     style="font-weight:300;font-size:25.4px;line-height:1.25;font-family:Outfit;-inkscape-font-specification:'Outfit Light';stroke-width:0.264583;fill:#ffffff;fill-opacity:1"
     id="path1134" />
  <path
     d="m 66.590416,18.5928 v -7.0104 q 0,-1.5748 -0.9398,-2.54 -0.9144,-0.9906 -2.4384,-0.9906 -1.0414,0 -1.8288,0.4572 -0.7874,0.4572 -1.2446,1.2446 -0.4572,0.7874 -0.4572,1.8034 l -0.812799,-0.4572 q 0,-1.3462 0.634999,-2.413 0.635,-1.0668 1.7018,-1.6764 1.0922,-0.6096 2.4892,-0.6096 1.3716,0 2.4384,0.635 1.0668,0.6096 1.651,1.7018 0.6096,1.0922 0.6096,2.54 v 7.3152 z m -8.686799,0 V 0.6096 h 1.777999 v 17.9832 z"
     style="font-weight:300;font-size:25.4px;line-height:1.25;font-family:Outfit;-inkscape-font-specification:'Outfit Light';stroke-width:0.264583;fill:#ffffff;fill-opacity:1"
     id="path1131" />
  <path
     d="M 73.423017,18.5928 V 1.6256 h 1.778 V 18.5928 Z M 70.40042,8.255 V 6.6548 h 7.797797 V 8.255 Z"
     style="font-weight:300;font-size:25.4px;line-height:1.25;font-family:Outfit;-inkscape-font-specification:'Outfit Light';stroke-width:0.264583;fill:#ffffff;fill-opacity:1"
     id="path1128" />
  <path
     d="M 81.068427,18.5928 V 1.1176 h 1.8542 v 17.4752 z m 1.2192,-7.8994 V 8.9916 h 9.3726 v 1.7018 z m 0,-7.874 V 1.1176 h 9.8044 v 1.7018 z"
     style="font-weight:300;font-size:25.4px;line-height:1.25;font-family:Outfit;-inkscape-font-specification:'Outfit Light';stroke-width:0.264583;fill:#ffffff;fill-opacity:1"
     id="path1125" />
  <path
     d="m 100.01682,18.8468 q -1.803403,0 -3.225803,-0.8128 -1.4224,-0.8128 -2.2606,-2.2352 -0.8128,-1.4224 -0.8128,-3.2004 0,-1.7526 0.8128,-3.1496 0.8128,-1.4224 2.2098,-2.2352 1.397,-0.8128 3.1242,-0.8128 1.625603,0 2.870203,0.7366 1.27,0.7366 1.9812,2.0574 0.7366,1.2954 0.7366,2.9972 0,0.2032 -0.0254,0.4826 -0.0254,0.254 -0.1016,0.6096 H 94.987617 v -1.524 h 9.372603 l -0.635,0.5588 q 0.0254,-1.3208 -0.4572,-2.2606 -0.4572,-0.9652 -1.3462,-1.4732 -0.8636,-0.5334 -2.108203,-0.5334 -1.2954,0 -2.2606,0.5588 -0.9652,0.5588 -1.524,1.5748 -0.5334,0.9906 -0.5334,2.3622 0,1.3716 0.5588,2.413 0.5842,1.0414 1.6002,1.6256 1.0414,0.5842 2.387603,0.5842 1.0922,0 2.0066,-0.381 0.9144,-0.4064 1.5494,-1.1938 l 1.143,1.1684 q -0.8382,0.9906 -2.0828,1.5494 -1.2192,0.5334 -2.6416,0.5334 z"
     style="font-weight:300;font-size:25.4px;line-height:1.25;font-family:Outfit;-inkscape-font-specification:'Outfit Light';stroke-width:0.264583;fill:#ffffff;fill-opacity:1"
     id="path1122" />
  <path
     d="M 108.17022,18.5928 V 0.6096 h 1.778 v 17.9832 z"
     style="font-weight:300;font-size:25.4px;line-height:1.25;font-family:Outfit;-inkscape-font-specification:'Outfit Light';stroke-width:0.264583;fill:#ffffff;fill-opacity:1"
     id="path1119" />
  <path
     d="m 118.63502,18.8468 q -1.651,0 -2.9718,-0.8128 -1.3208,-0.8128 -2.1082,-2.2098 -0.762,-1.4224 -0.762,-3.175 0,-1.778 0.762,-3.175 0.7874,-1.4224 2.1082,-2.2352 1.3208,-0.8382 2.9718,-0.8382 1.3462,0 2.4384,0.5334 1.0922,0.5334 1.8034,1.524 0.7366,0.9652 0.8636,2.286 v 3.7338 q -0.1524,1.2954 -0.8636,2.286 -0.6858,0.9652 -1.778,1.524 -1.0922,0.5588 -2.4638,0.5588 z m 0.3048,-1.7018 q 1.2446,0 2.1844,-0.5588 0.9398,-0.5842 1.4732,-1.6002 0.5334,-1.0414 0.5334,-2.3622 0,-1.3462 -0.5588,-2.3622 -0.5334,-1.016 -1.4732,-1.6002 -0.9398,-0.5842 -2.1844,-0.5842 -1.2446,0 -2.2098,0.5842 -0.9652,0.5842 -1.524,1.6256 -0.5334,1.016 -0.5334,2.3368 0,1.3208 0.5334,2.3622 0.5588,1.016 1.524,1.6002 0.9906,0.5588 2.2352,0.5588 z m 5.8674,1.4478 h -1.778 v -3.2004 l 0.3556,-2.9464 -0.3556,-2.8702 V 0.6096 h 1.778 z"
     style="font-weight:300;font-size:25.4px;line-height:1.25;font-family:Outfit;-inkscape-font-specification:'Outfit Light';stroke-width:0.264583;fill:#ffffff;fill-opacity:1"
     id="path1116" />
  <path
     d="m 139.31059,18.8722 q -2.2606,0 -3.937,-0.6858 -1.651,-0.6858 -3.0226,-2.159 l 2.8702,-2.8956 q 0.9398,0.9906 2.0066,1.524 1.0668,0.508 2.413,0.508 1.143,0 1.7526,-0.381 0.635,-0.4064 0.635,-1.0922 0,-0.635 -0.4572,-1.0414 -0.4572,-0.4318 -1.2192,-0.7366 -0.7366,-0.3302 -1.651,-0.6096 -0.889,-0.3048 -1.8034,-0.7112 -0.889,-0.4318 -1.651,-1.0414 -0.7366,-0.6096 -1.1938,-1.524 -0.4572,-0.9144 -0.4572,-2.2606 0,-1.7272 0.8128,-2.9464 0.8382,-1.2192 2.3114,-1.8796 1.4732,-0.6604 3.429,-0.6604 1.9558,0 3.6068,0.6604 1.651,0.6604 2.7178,1.8288 l -2.8956,2.8702 q -0.8128,-0.8128 -1.651,-1.2192 -0.8382,-0.4064 -1.8288,-0.4064 -0.9398,0 -1.4732,0.3302 -0.5334,0.3302 -0.5334,0.9398 0,0.6096 0.4572,0.9906 0.4572,0.381 1.1938,0.6858 0.762,0.2794 1.651,0.5842 0.9144,0.3048 1.8034,0.7112 0.889,0.4064 1.6256,1.0414 0.762,0.635 1.2192,1.6002 0.4572,0.9652 0.4572,2.3368 0,2.6924 -1.905,4.1656 -1.8796,1.4732 -5.2832,1.4732 z"
     style="font-weight:800;font-size:25.4px;line-height:1.25;font-family:Outfit;-inkscape-font-specification:'Outfit Ultra-Bold';stroke-width:0.264583;fill:#ffffff;fill-opacity:1"
     id="path1113" />
  <path
     d="M 150.20721,18.5928 V 1.0414 h 4.4196 v 17.5514 z m -2.7432,-8.7376 v -3.683 h 9.906 v 3.683 z"
     style="font-weight:800;font-size:25.4px;line-height:1.25;font-family:Outfit;-inkscape-font-specification:'Outfit Ultra-Bold';stroke-width:0.264583;fill:#ffffff;fill-opacity:1"
     id="path1110" />
  <path
     d="m 164.60901,18.8722 q -1.7526,0 -3.1242,-0.6858 -1.3462,-0.7112 -2.1336,-1.9558 -0.762,-1.27 -0.762,-2.8702 V 6.1722 h 4.4196 v 7.1882 q 0,0.508 0.2032,0.889 0.2032,0.381 0.5588,0.5842 0.3556,0.2032 0.8382,0.2032 0.7112,0 1.143,-0.4572 0.4572,-0.4572 0.4572,-1.2192 V 6.1722 h 4.4196 v 7.1882 q 0,1.6256 -0.762,2.8702 -0.762,1.2446 -2.1336,1.9558 -1.3462,0.6858 -3.1242,0.6858 z"
     style="font-weight:800;font-size:25.4px;line-height:1.25;font-family:Outfit;-inkscape-font-specification:'Outfit Ultra-Bold';stroke-width:0.264583;fill:#ffffff;fill-opacity:1"
     id="path1107" />
  <path
     d="m 178.22339,18.8468 q -1.8034,0 -3.175,-0.8382 -1.3716,-0.8382 -2.159,-2.286 -0.762,-1.4732 -0.762,-3.3274 0,-1.8796 0.762,-3.3528 0.7874,-1.4732 2.1336,-2.286 1.3716,-0.8382 3.2004,-0.8382 1.1684,0 2.1844,0.4318 1.016,0.4064 1.7018,1.1684 0.6858,0.762 0.8128,1.7272 v 6.0706 q -0.127,0.9652 -0.8128,1.778 -0.6858,0.8128 -1.7018,1.2954 -1.016,0.4572 -2.1844,0.4572 z m 0.7874,-3.937 q 0.7366,0 1.27,-0.3048 0.5334,-0.3302 0.8382,-0.889 0.3302,-0.5842 0.3302,-1.3462 0,-0.7366 -0.3048,-1.2954 -0.3048,-0.5588 -0.8636,-0.889 -0.5334,-0.3302 -1.2446,-0.3302 -0.7112,0 -1.27,0.3302 -0.5334,0.3302 -0.8636,0.9144 -0.3048,0.5588 -0.3048,1.27 0,0.7366 0.3048,1.3208 0.3048,0.5588 0.8636,0.889 0.5588,0.3302 1.2446,0.3302 z m 6.604,3.683 h -4.3434 v -3.3274 l 0.635,-3.048 -0.7112,-2.9972 v -9.144 h 4.4196 z"
     style="font-weight:800;font-size:25.4px;line-height:1.25;font-family:Outfit;-inkscape-font-specification:'Outfit Ultra-Bold';stroke-width:0.264583;fill:#ffffff;fill-opacity:1"
     id="path1104" />
  <path
     d="M 188.1802,18.5928 V 6.1722 h 4.445 V 18.5928 Z M 190.39,4.7244 q -0.9906,0 -1.651,-0.6604 -0.6604,-0.6858 -0.6604,-1.7018 0,-0.9906 0.6604,-1.6764 Q 189.3994,0 190.39,0 q 1.0414,0 1.6764,0.6858 0.6604,0.6858 0.6604,1.6764 0,1.016 -0.6604,1.7018 -0.635,0.6604 -1.6764,0.6604 z"
     style="font-weight:800;font-size:25.4px;line-height:1.25;font-family:Outfit;-inkscape-font-specification:'Outfit Ultra-Bold';stroke-width:0.264583;fill:#ffffff;fill-opacity:1"
     id="path1101" />
  <path
     d="m 201.312,18.8722 q -2.0066,0 -3.5814,-0.8382 -1.5494,-0.8636 -2.4638,-2.3368 -0.9144,-1.4986 -0.9144,-3.3528 0,-1.8542 0.889,-3.302 0.9144,-1.4732 2.4892,-2.3114 1.5748,-0.8636 3.556,-0.8636 1.9812,0 3.5306,0.8636 1.5748,0.8382 2.4892,2.3114 0.9144,1.4478 0.9144,3.302 0,1.8542 -0.9144,3.3528 -0.889,1.4732 -2.4638,2.3368 -1.5494,0.8382 -3.5306,0.8382 z m -0.0254,-3.937 q 0.7366,0 1.27,-0.3048 0.5588,-0.3302 0.8636,-0.9144 0.3048,-0.5842 0.3048,-1.3462 0,-0.762 -0.3302,-1.3208 -0.3048,-0.5842 -0.8382,-0.889 -0.5334,-0.3302 -1.27,-0.3302 -0.7112,0 -1.27,0.3302 -0.5588,0.3302 -0.8636,0.9144 -0.3048,0.5588 -0.3048,1.3208 0,0.7366 0.3048,1.3208 0.3048,0.5842 0.8636,0.9144 0.5588,0.3048 1.27,0.3048 z"
     style="font-weight:800;font-size:25.4px;line-height:1.25;font-family:Outfit;-inkscape-font-specification:'Outfit Ultra-Bold';stroke-width:0.264583;fill:#ffffff;fill-opacity:1"
     id="path1098" />
  <path
     id="path1095"
     style="stroke-width:1.14551;stop-color:#ffffff;fill:#ffffff;fill-opacity:1"
     d="M 2.250456,2.19238 A 1.1252281,1.1252281 0 0 1 1.125228,3.317604 1.1252281,1.1252281 0 0 1 0,2.19238 1.1252281,1.1252281 0 0 1 1.125228,1.06715 1.1252281,1.1252281 0 0 1 2.250456,2.19238 Z" />
  <path
     id="path1092"
     style="stroke-width:1.14551;stop-color:#ffffff;fill:#ffffff;fill-opacity:1"
     d="M 5.305147,2.19238 A 1.1252281,1.1252281 0 0 1 4.179918,3.317604 1.1252281,1.1252281 0 0 1 3.054692,2.19238 1.1252281,1.1252281 0 0 1 4.179918,1.06715 1.1252281,1.1252281 0 0 1 5.305147,2.19238 Z" />
  <path
     id="path1089"
     style="stroke-width:1.14551;stop-color:#ffffff;fill:#ffffff;fill-opacity:1"
     d="M 8.359838,2.19238 A 1.1252281,1.1252281 0 0 1 7.234608,3.317604 1.1252281,1.1252281 0 0 1 6.109382,2.19238 1.1252281,1.1252281 0 0 1 7.234608,1.06715 1.1252281,1.1252281 0 0 1 8.359838,2.19238 Z" />
  <path
     id="path1086"
     style="stroke-width:1.14551;stop-color:#ffffff;fill:#ffffff;fill-opacity:1"
     d="M 11.414529,2.19238 A 1.1252281,1.1252281 0 0 1 10.289299,3.317604 1.1252281,1.1252281 0 0 1 9.164073,2.19238 1.1252281,1.1252281 0 0 1 10.289299,1.06715 1.1252281,1.1252281 0 0 1 11.414529,2.19238 Z" />
  <path
     id="path1083"
     style="stroke-width:1.14551;stop-color:#ffffff;fill:#ffffff;fill-opacity:1"
     d="M 14.46922,2.19238 A 1.1252281,1.1252281 0 0 1 13.34399,3.317604 1.1252281,1.1252281 0 0 1 12.218764,2.19238 1.1252281,1.1252281 0 0 1 13.34399,1.06715 1.1252281,1.1252281 0 0 1 14.46922,2.19238 Z" />
  <path
     id="path1080"
     style="stroke-width:1.14551;stop-color:#ffffff;fill:#ffffff;fill-opacity:1"
     d="M 17.52391,2.19238 A 1.1252281,1.1252281 0 0 1 16.398681,3.317604 1.1252281,1.1252281 0 0 1 15.273455,2.19238 1.1252281,1.1252281 0 0 1 16.398681,1.06715 1.1252281,1.1252281 0 0 1 17.52391,2.19238 Z" />
  <path
     id="path1077"
     style="stroke-width:1.14551;stop-color:#ffffff;fill:#ffffff;fill-opacity:1"
     d="M 2.250456,5.24707 A 1.1252281,1.1252281 0 0 1 1.125228,6.372294 1.1252281,1.1252281 0 0 1 0,5.24707 1.1252281,1.1252281 0 0 1 1.125228,4.12184 1.1252281,1.1252281 0 0 1 2.250456,5.24707 Z" />
  <path
     id="path1074"
     style="stroke-width:1.14551;stop-color:#ffffff;fill:#ffffff;fill-opacity:1"
     d="M 5.305147,5.24707 A 1.1252281,1.1252281 0 0 1 4.179918,6.372294 1.1252281,1.1252281 0 0 1 3.054692,5.24707 1.1252281,1.1252281 0 0 1 4.179918,4.12184 1.1252281,1.1252281 0 0 1 5.305147,5.24707 Z" />
  <path
     id="path1071"
     style="stroke-width:1.14551;stop-color:#ffffff;fill:#ffffff;fill-opacity:1"
     d="M 8.359838,5.24707 A 1.1252281,1.1252281 0 0 1 7.234608,6.372294 1.1252281,1.1252281 0 0 1 6.109382,5.24707 1.1252281,1.1252281 0 0 1 7.234608,4.12184 1.1252281,1.1252281 0 0 1 8.359838,5.24707 Z" />
  <path
     id="path1068"
     style="stroke-width:1.14551;stop-color:#ffffff;fill:#ffffff;fill-opacity:1"
     d="M 11.414529,5.24707 A 1.1252281,1.1252281 0 0 1 10.289299,6.372294 1.1252281,1.1252281 0 0 1 9.164073,5.24707 1.1252281,1.1252281 0 0 1 10.289299,4.12184 1.1252281,1.1252281 0 0 1 11.414529,5.24707 Z" />
  <path
     id="path1065"
     style="stroke-width:1.14551;stop-color:#ffffff;fill:#ffffff;fill-opacity:1"
     d="M 14.46922,5.24707 A 1.1252281,1.1252281 0 0 1 13.34399,6.372294 1.1252281,1.1252281 0 0 1 12.218764,5.24707 1.1252281,1.1252281 0 0 1 13.34399,4.12184 1.1252281,1.1252281 0 0 1 14.46922,5.24707 Z" />
  <path
     id="path1062"
     style="stroke-width:1.14551;stop-color:#ffffff;fill:#ffffff;fill-opacity:1"
     d="M 17.52391,5.24707 A 1.1252281,1.1252281 0 0 1 16.398681,6.372294 1.1252281,1.1252281 0 0 1 15.273455,5.24707 1.1252281,1.1252281 0 0 1 16.398681,4.12184 1.1252281,1.1252281 0 0 1 17.52391,5.24707 Z" />
  <path
     id="path1059"
     style="stroke-width:1.14551;stop-color:#ffffff;fill:#ffffff;fill-opacity:1"
     d="M 2.250456,8.30176 A 1.1252281,1.1252281 0 0 1 1.125228,9.426984 1.1252281,1.1252281 0 0 1 0,8.30176 1.1252281,1.1252281 0 0 1 1.125228,7.17653 1.1252281,1.1252281 0 0 1 2.250456,8.30176 Z" />
  <path
     id="path1056"
     style="stroke-width:1.14551;stop-color:#ffffff;fill:#ffffff;fill-opacity:1"
     d="M 5.305147,8.30176 A 1.1252281,1.1252281 0 0 1 4.179918,9.426984 1.1252281,1.1252281 0 0 1 3.054692,8.30176 1.1252281,1.1252281 0 0 1 4.179918,7.17653 1.1252281,1.1252281 0 0 1 5.305147,8.30176 Z" />
  <path
     id="path1053"
     style="stroke-width:1.14551;stop-color:#ffffff;fill:#ffffff;fill-opacity:1"
     d="M 8.359838,8.30176 A 1.1252281,1.1252281 0 0 1 7.234608,9.426984 1.1252281,1.1252281 0 0 1 6.109382,8.30176 1.1252281,1.1252281 0 0 1 7.234608,7.17653 1.1252281,1.1252281 0 0 1 8.359838,8.30176 Z" />
  <path
     id="path1050"
     style="stroke-width:1.14551;stop-color:#ffffff;fill:#ffffff;fill-opacity:1"
     d="M 11.414529,8.30176 A 1.1252281,1.1252281 0 0 1 10.289299,9.426984 1.1252281,1.1252281 0 0 1 9.164073,8.30176 1.1252281,1.1252281 0 0 1 10.289299,7.17653 1.1252281,1.1252281 0 0 1 11.414529,8.30176 Z" />
  <path
     id="path1047"
     style="stroke-width:1.14551;stop-color:#ffffff;fill:#ffffff;fill-opacity:1"
     d="M 14.46922,8.30176 A 1.1252281,1.1252281 0 0 1 13.34399,9.426984 1.1252281,1.1252281 0 0 1 12.218764,8.30176 1.1252281,1.1252281 0 0 1 13.34399,7.17653 1.1252281,1.1252281 0 0 1 14.46922,8.30176 Z" />
  <path
     id="path1044"
     style="stroke-width:1.14551;stop-color:#ffffff;fill:#ffffff;fill-opacity:1"
     d="M 17.52391,8.30176 A 1.1252281,1.1252281 0 0 1 16.398681,9.426984 1.1252281,1.1252281 0 0 1 15.273455,8.30176 1.1252281,1.1252281 0 0 1 16.398681,7.17653 1.1252281,1.1252281 0 0 1 17.52391,8.30176 Z" />
  <path
     id="path1041"
     style="stroke-width:1.14551;stop-color:#ffffff;fill:#ffffff;fill-opacity:1"
     d="M 2.250456,11.35645 A 1.1252281,1.1252281 0 0 1 1.125228,12.48168 1.1252281,1.1252281 0 0 1 0,11.35645 1.1252281,1.1252281 0 0 1 1.125228,10.23122 1.1252281,1.1252281 0 0 1 2.250456,11.35645 Z" />
  <path
     id="path1038"
     style="stroke-width:1.14551;stop-color:#ffffff;fill:#ffffff;fill-opacity:1"
     d="M 5.305147,11.35645 A 1.1252281,1.1252281 0 0 1 4.179918,12.48168 1.1252281,1.1252281 0 0 1 3.054692,11.35645 1.1252281,1.1252281 0 0 1 4.179918,10.23122 1.1252281,1.1252281 0 0 1 5.305147,11.35645 Z" />
  <path
     id="path1035"
     style="stroke-width:1.14551;stop-color:#ffffff;fill:#ffffff;fill-opacity:1"
     d="m 8.359838,11.35645 a 1.1252281,1.1252281 0 0 1 -1.12523,1.12523 1.1252281,1.1252281 0 0 1 -1.125226,-1.12523 1.1252281,1.1252281 0 0 1 1.125226,-1.12523 1.1252281,1.1252281 0 0 1 1.12523,1.12523 z" />
  <path
     id="path1032"
     style="stroke-width:1.14551;stop-color:#ffffff;fill:#ffffff;fill-opacity:1"
     d="m 11.414529,11.35645 a 1.1252281,1.1252281 0 0 1 -1.12523,1.12523 1.1252281,1.1252281 0 0 1 -1.125226,-1.12523 1.1252281,1.1252281 0 0 1 1.125226,-1.12523 1.1252281,1.1252281 0 0 1 1.12523,1.12523 z" />
  <path
     id="path1029"
     style="stroke-width:1.14551;stop-color:#ffffff;fill:#ffffff;fill-opacity:1"
     d="m 14.46922,11.35645 a 1.1252281,1.1252281 0 0 1 -1.12523,1.12523 1.1252281,1.1252281 0 0 1 -1.125226,-1.12523 1.1252281,1.1252281 0 0 1 1.125226,-1.12523 1.1252281,1.1252281 0 0 1 1.12523,1.12523 z" />
  <path
     id="path1026"
     style="stroke-width:1.14551;stop-color:#ffffff;fill:#ffffff;fill-opacity:1"
     d="m 17.52391,11.35645 a 1.1252281,1.1252281 0 0 1 -1.125229,1.12523 1.1252281,1.1252281 0 0 1 -1.125226,-1.12523 1.1252281,1.1252281 0 0 1 1.125226,-1.12523 1.1252281,1.1252281 0 0 1 1.125229,1.12523 z" />
  <path
     id="path1023"
     style="stroke-width:1.14551;stop-color:#ffffff;fill:#ffffff;fill-opacity:1"
     d="M 2.250456,14.41114 A 1.1252281,1.1252281 0 0 1 1.125228,15.53637 1.1252281,1.1252281 0 0 1 0,14.41114 1.1252281,1.1252281 0 0 1 1.125228,13.285916 1.1252281,1.1252281 0 0 1 2.250456,14.41114 Z" />
  <path
     id="path1020"
     style="stroke-width:1.14551;stop-color:#ffffff;fill:#ffffff;fill-opacity:1"
     d="M 5.305147,14.41114 A 1.1252281,1.1252281 0 0 1 4.179918,15.53637 1.1252281,1.1252281 0 0 1 3.054692,14.41114 1.1252281,1.1252281 0 0 1 4.179918,13.285916 1.1252281,1.1252281 0 0 1 5.305147,14.41114 Z" />
  <path
     id="path1017"
     style="stroke-width:1.14551;stop-color:#ffffff;fill:#ffffff;fill-opacity:1"
     d="m 8.359838,14.41114 a 1.1252281,1.1252281 0 0 1 -1.12523,1.12523 1.1252281,1.1252281 0 0 1 -1.125226,-1.12523 1.1252281,1.1252281 0 0 1 1.125226,-1.125224 1.1252281,1.1252281 0 0 1 1.12523,1.125224 z" />
  <path
     id="path1014"
     style="stroke-width:1.14551;stop-color:#ffffff;fill:#ffffff;fill-opacity:1"
     d="m 11.414529,14.41114 a 1.1252281,1.1252281 0 0 1 -1.12523,1.12523 1.1252281,1.1252281 0 0 1 -1.125226,-1.12523 1.1252281,1.1252281 0 0 1 1.125226,-1.125224 1.1252281,1.1252281 0 0 1 1.12523,1.125224 z" />
  <path
     id="path1011"
     style="stroke-width:1.14551;stop-color:#ffffff;fill:#ffffff;fill-opacity:1"
     d="m 14.46922,14.41114 a 1.1252281,1.1252281 0 0 1 -1.12523,1.12523 1.1252281,1.1252281 0 0 1 -1.125226,-1.12523 1.1252281,1.1252281 0 0 1 1.125226,-1.125224 1.1252281,1.1252281 0 0 1 1.12523,1.125224 z" />
  <path
     id="path1008"
     style="stroke-width:1.14551;stop-color:#ffffff;fill:#ffffff;fill-opacity:1"
     d="m 17.52391,14.41114 a 1.1252281,1.1252281 0 0 1 -1.125229,1.12523 1.1252281,1.1252281 0 0 1 -1.125226,-1.12523 1.1252281,1.1252281 0 0 1 1.125226,-1.125224 1.1252281,1.1252281 0 0 1 1.125229,1.125224 z" />
  <path
     id="path1005"
     style="stroke-width:1.14551;stop-color:#ffffff;fill:#ffffff;fill-opacity:1"
     d="M 2.250456,17.465836 A 1.1252281,1.1252281 0 0 1 1.125228,18.59106 1.1252281,1.1252281 0 0 1 0,17.465836 a 1.1252281,1.1252281 0 0 1 1.125228,-1.12523 1.1252281,1.1252281 0 0 1 1.125228,1.12523 z" />
  <path
     id="path1002"
     style="stroke-width:1.14551;stop-color:#ffffff;fill:#ffffff;fill-opacity:1"
     d="m 5.305147,17.465836 a 1.1252281,1.1252281 0 0 1 -1.125229,1.125224 1.1252281,1.1252281 0 0 1 -1.125226,-1.125224 1.1252281,1.1252281 0 0 1 1.125226,-1.12523 1.1252281,1.1252281 0 0 1 1.125229,1.12523 z" />
  <path
     id="path999"
     style="stroke-width:1.14551;stop-color:#ffffff;fill:#ffffff;fill-opacity:1"
     d="m 8.359838,17.465836 a 1.1252281,1.1252281 0 0 1 -1.12523,1.125224 1.1252281,1.1252281 0 0 1 -1.125226,-1.125224 1.1252281,1.1252281 0 0 1 1.125226,-1.12523 1.1252281,1.1252281 0 0 1 1.12523,1.12523 z" />
  <path
     id="path996"
     style="stroke-width:1.14551;stop-color:#ffffff;fill:#ffffff;fill-opacity:1"
     d="m 11.414529,17.465836 a 1.1252281,1.1252281 0 0 1 -1.12523,1.125224 1.1252281,1.1252281 0 0 1 -1.125226,-1.125224 1.1252281,1.1252281 0 0 1 1.125226,-1.12523 1.1252281,1.1252281 0 0 1 1.12523,1.12523 z" />
  <path
     id="path993"
     style="stroke-width:1.14551;stop-color:#ffffff;fill:#ffffff;fill-opacity:1"
     d="m 14.46922,17.465836 a 1.1252281,1.1252281 0 0 1 -1.12523,1.125224 1.1252281,1.1252281 0 0 1 -1.125226,-1.125224 1.1252281,1.1252281 0 0 1 1.125226,-1.12523 1.1252281,1.1252281 0 0 1 1.12523,1.12523 z" />
  <path
     id="path990"
     style="stroke-width:1.14551;stop-color:#ffffff;fill:#ffffff;fill-opacity:1"
     d="m 17.52391,17.465836 a 1.1252281,1.1252281 0 0 1 -1.125229,1.125224 1.1252281,1.1252281 0 0 1 -1.125226,-1.125224 1.1252281,1.1252281 0 0 1 1.125226,-1.12523 1.1252281,1.1252281 0 0 1 1.125229,1.12523 z" />
</svg>
