<?xml version="1.0" encoding="UTF-8" standalone="no"?>
<!-- Created with Inkscape (http://www.inkscape.org/) -->

<svg
   width="17.524mm"
   height="17.523994mm"
   viewBox="0 0 17.524 17.523994"
   version="1.1"
   id="svg4922"
   inkscape:version="1.1.2 (b8e25be833, 2022-02-05)"
   sodipodi:docname="lichtfeld-icon.svg"
   xmlns:inkscape="http://www.inkscape.org/namespaces/inkscape"
   xmlns:sodipodi="http://sodipodi.sourceforge.net/DTD/sodipodi-0.dtd"
   xmlns:xlink="http://www.w3.org/1999/xlink"
   xmlns="http://www.w3.org/2000/svg"
   xmlns:svg="http://www.w3.org/2000/svg">
  <sodipodi:namedview
     id="namedview4924"
     pagecolor="#ffffff"
     bordercolor="#666666"
     borderopacity="1.0"
     inkscape:pageshadow="2"
     inkscape:pageopacity="0.0"
     inkscape:pagecheckerboard="0"
     inkscape:document-units="mm"
     showgrid="false"
     fit-margin-top="0"
     fit-margin-left="0"
     fit-margin-right="0"
     fit-margin-bottom="0"
     inkscape:zoom="3.1108586"
     inkscape:cx="44.842926"
     inkscape:cy="63.326569"
     inkscape:window-width="3840"
     inkscape:window-height="2071"
     inkscape:window-x="-9"
     inkscape:window-y="-9"
     inkscape:window-maximized="1"
     inkscape:current-layer="layer1" />
  <defs
     id="defs4919">
    <linearGradient
       inkscape:collect="always"
       xlink:href="#linearGradient3884"
       id="linearGradient3886"
       x1="125.91713"
       y1="154.41197"
       x2="125.91713"
       y2="287.34473"
       gradientUnits="userSpaceOnUse"
       gradientTransform="matrix(0.26458333,0,0,0.26458333,157.32843,2.9484242)" />
    <linearGradient
       inkscape:collect="always"
       id="linearGradient3884">
      <stop
         style="stop-color:#000000;stop-opacity:1;"
         offset="0"
         id="stop3880" />
      <stop
         style="stop-color:#ffffff;stop-opacity:1"
         offset="1"
         id="stop3882" />
    </linearGradient>
  </defs>
  <g
     inkscape:label="Ebene 1"
     inkscape:groupmode="layer"
     id="layer1"
     transform="translate(-182.43387,-52.475116)">
    <path
       id="path1095-9"
       style="fill:url(#linearGradient3886);fill-opacity:1;stroke-width:1.14551;stop-color:#ffffff"
       d="m 183.55939,52.475116 a 1.1252281,1.1252281 0 0 0 -1.12552,1.124995 1.1252281,1.1252281 0 0 0 1.12552,1.125514 1.1252281,1.1252281 0 0 0 1.12499,-1.125514 1.1252281,1.1252281 0 0 0 -1.12499,-1.124995 z m 3.05459,0 a 1.1252281,1.1252281 0 0 0 -1.12551,1.124995 1.1252281,1.1252281 0 0 0 1.12551,1.125514 1.1252281,1.1252281 0 0 0 1.125,-1.125514 1.1252281,1.1252281 0 0 0 -1.125,-1.124995 z m 3.05459,0 a 1.1252281,1.1252281 0 0 0 -1.12499,1.124995 1.1252281,1.1252281 0 0 0 1.12499,1.125514 1.1252281,1.1252281 0 0 0 1.125,-1.125514 1.1252281,1.1252281 0 0 0 -1.125,-1.124995 z m 3.0546,0 a 1.1252281,1.1252281 0 0 0 -1.125,1.124995 1.1252281,1.1252281 0 0 0 1.125,1.125514 1.1252281,1.1252281 0 0 0 1.12551,-1.125514 1.1252281,1.1252281 0 0 0 -1.12551,-1.124995 z m 3.05459,0 a 1.1252281,1.1252281 0 0 0 -1.12499,1.124995 1.1252281,1.1252281 0 0 0 1.12499,1.125514 1.1252281,1.1252281 0 0 0 1.12552,-1.125514 1.1252281,1.1252281 0 0 0 -1.12552,-1.124995 z m 3.05511,0 a 1.1252281,1.1252281 0 0 0 -1.12551,1.124995 1.1252281,1.1252281 0 0 0 1.12551,1.125514 1.1252281,1.1252281 0 0 0 1.125,-1.125514 1.1252281,1.1252281 0 0 0 -1.125,-1.124995 z m -15.27348,3.054594 a 1.1252281,1.1252281 0 0 0 -1.12552,1.125513 1.1252281,1.1252281 0 0 0 1.12552,1.124995 1.1252281,1.1252281 0 0 0 1.12499,-1.124995 1.1252281,1.1252281 0 0 0 -1.12499,-1.125513 z m 3.05459,0 a 1.1252281,1.1252281 0 0 0 -1.12551,1.125513 1.1252281,1.1252281 0 0 0 1.12551,1.124995 1.1252281,1.1252281 0 0 0 1.125,-1.124995 1.1252281,1.1252281 0 0 0 -1.125,-1.125513 z m 3.05459,0 a 1.1252281,1.1252281 0 0 0 -1.12499,1.125513 1.1252281,1.1252281 0 0 0 1.12499,1.124995 1.1252281,1.1252281 0 0 0 1.125,-1.124995 1.1252281,1.1252281 0 0 0 -1.125,-1.125513 z m 3.0546,0 a 1.1252281,1.1252281 0 0 0 -1.125,1.125513 1.1252281,1.1252281 0 0 0 1.125,1.124995 1.1252281,1.1252281 0 0 0 1.12551,-1.124995 1.1252281,1.1252281 0 0 0 -1.12551,-1.125513 z m 3.05459,0 a 1.1252281,1.1252281 0 0 0 -1.12499,1.125513 1.1252281,1.1252281 0 0 0 1.12499,1.124995 1.1252281,1.1252281 0 0 0 1.12552,-1.124995 1.1252281,1.1252281 0 0 0 -1.12552,-1.125513 z m 3.05511,0 a 1.1252281,1.1252281 0 0 0 -1.12551,1.125513 1.1252281,1.1252281 0 0 0 1.12551,1.124995 1.1252281,1.1252281 0 0 0 1.125,-1.124995 1.1252281,1.1252281 0 0 0 -1.125,-1.125513 z m -15.27348,3.054593 a 1.1252281,1.1252281 0 0 0 -1.12552,1.125514 1.1252281,1.1252281 0 0 0 1.12552,1.124995 1.1252281,1.1252281 0 0 0 1.12499,-1.124995 1.1252281,1.1252281 0 0 0 -1.12499,-1.125514 z m 3.05459,0 a 1.1252281,1.1252281 0 0 0 -1.12551,1.125514 1.1252281,1.1252281 0 0 0 1.12551,1.124995 1.1252281,1.1252281 0 0 0 1.125,-1.124995 1.1252281,1.1252281 0 0 0 -1.125,-1.125514 z m 3.05459,0 a 1.1252281,1.1252281 0 0 0 -1.12499,1.125514 1.1252281,1.1252281 0 0 0 1.12499,1.124995 1.1252281,1.1252281 0 0 0 1.125,-1.124995 1.1252281,1.1252281 0 0 0 -1.125,-1.125514 z m 3.0546,0 a 1.1252281,1.1252281 0 0 0 -1.125,1.125514 1.1252281,1.1252281 0 0 0 1.125,1.124995 1.1252281,1.1252281 0 0 0 1.12551,-1.124995 1.1252281,1.1252281 0 0 0 -1.12551,-1.125514 z m 3.05459,0 a 1.1252281,1.1252281 0 0 0 -1.12499,1.125514 1.1252281,1.1252281 0 0 0 1.12499,1.124995 1.1252281,1.1252281 0 0 0 1.12552,-1.124995 1.1252281,1.1252281 0 0 0 -1.12552,-1.125514 z m 3.05511,0 a 1.1252281,1.1252281 0 0 0 -1.12551,1.125514 1.1252281,1.1252281 0 0 0 1.12551,1.124995 1.1252281,1.1252281 0 0 0 1.125,-1.124995 1.1252281,1.1252281 0 0 0 -1.125,-1.125514 z m -15.27348,3.054596 a 1.1252281,1.1252281 0 0 0 -1.12552,1.125511 1.1252281,1.1252281 0 0 0 1.12552,1.124995 1.1252281,1.1252281 0 0 0 1.12499,-1.124995 1.1252281,1.1252281 0 0 0 -1.12499,-1.125511 z m 3.05459,0 a 1.1252281,1.1252281 0 0 0 -1.12551,1.125511 1.1252281,1.1252281 0 0 0 1.12551,1.124995 1.1252281,1.1252281 0 0 0 1.125,-1.124995 1.1252281,1.1252281 0 0 0 -1.125,-1.125511 z m 3.05459,0 a 1.1252281,1.1252281 0 0 0 -1.12499,1.125511 1.1252281,1.1252281 0 0 0 1.12499,1.124995 1.1252281,1.1252281 0 0 0 1.125,-1.124995 1.1252281,1.1252281 0 0 0 -1.125,-1.125511 z m 3.0546,0 a 1.1252281,1.1252281 0 0 0 -1.125,1.125511 1.1252281,1.1252281 0 0 0 1.125,1.124995 1.1252281,1.1252281 0 0 0 1.12551,-1.124995 1.1252281,1.1252281 0 0 0 -1.12551,-1.125511 z m 3.05459,0 a 1.1252281,1.1252281 0 0 0 -1.12499,1.125511 1.1252281,1.1252281 0 0 0 1.12499,1.124995 1.1252281,1.1252281 0 0 0 1.12552,-1.124995 1.1252281,1.1252281 0 0 0 -1.12552,-1.125511 z m 3.05511,0 a 1.1252281,1.1252281 0 0 0 -1.12551,1.125511 1.1252281,1.1252281 0 0 0 1.12551,1.124995 1.1252281,1.1252281 0 0 0 1.125,-1.124995 1.1252281,1.1252281 0 0 0 -1.125,-1.125511 z m -15.27348,3.055109 a 1.1252281,1.1252281 0 0 0 -1.12552,1.124995 1.1252281,1.1252281 0 0 0 1.12552,1.125514 1.1252281,1.1252281 0 0 0 1.12499,-1.125514 1.1252281,1.1252281 0 0 0 -1.12499,-1.124995 z m 3.05459,0 a 1.1252281,1.1252281 0 0 0 -1.12551,1.124995 1.1252281,1.1252281 0 0 0 1.12551,1.125514 1.1252281,1.1252281 0 0 0 1.125,-1.125514 1.1252281,1.1252281 0 0 0 -1.125,-1.124995 z m 3.05459,0 a 1.1252281,1.1252281 0 0 0 -1.12499,1.124995 1.1252281,1.1252281 0 0 0 1.12499,1.125514 1.1252281,1.1252281 0 0 0 1.125,-1.125514 1.1252281,1.1252281 0 0 0 -1.125,-1.124995 z m 3.0546,0 a 1.1252281,1.1252281 0 0 0 -1.125,1.124995 1.1252281,1.1252281 0 0 0 1.125,1.125514 1.1252281,1.1252281 0 0 0 1.12551,-1.125514 1.1252281,1.1252281 0 0 0 -1.12551,-1.124995 z m 3.05459,0 a 1.1252281,1.1252281 0 0 0 -1.12499,1.124995 1.1252281,1.1252281 0 0 0 1.12499,1.125514 1.1252281,1.1252281 0 0 0 1.12552,-1.125514 1.1252281,1.1252281 0 0 0 -1.12552,-1.124995 z m 3.05511,0 a 1.1252281,1.1252281 0 0 0 -1.12551,1.124995 1.1252281,1.1252281 0 0 0 1.12551,1.125514 1.1252281,1.1252281 0 0 0 1.125,-1.125514 1.1252281,1.1252281 0 0 0 -1.125,-1.124995 z m -15.27348,3.054594 a 1.1252281,1.1252281 0 0 0 -1.12552,1.124997 1.1252281,1.1252281 0 0 0 1.12552,1.125512 1.1252281,1.1252281 0 0 0 1.12499,-1.125512 1.1252281,1.1252281 0 0 0 -1.12499,-1.124997 z m 3.05459,0 a 1.1252281,1.1252281 0 0 0 -1.12551,1.124997 1.1252281,1.1252281 0 0 0 1.12551,1.125512 1.1252281,1.1252281 0 0 0 1.125,-1.125512 1.1252281,1.1252281 0 0 0 -1.125,-1.124997 z m 3.05459,0 a 1.1252281,1.1252281 0 0 0 -1.12499,1.124997 1.1252281,1.1252281 0 0 0 1.12499,1.125512 1.1252281,1.1252281 0 0 0 1.125,-1.125512 1.1252281,1.1252281 0 0 0 -1.125,-1.124997 z m 3.0546,0 a 1.1252281,1.1252281 0 0 0 -1.125,1.124997 1.1252281,1.1252281 0 0 0 1.125,1.125512 1.1252281,1.1252281 0 0 0 1.12551,-1.125512 1.1252281,1.1252281 0 0 0 -1.12551,-1.124997 z m 3.05459,0 a 1.1252281,1.1252281 0 0 0 -1.12499,1.124997 1.1252281,1.1252281 0 0 0 1.12499,1.125512 1.1252281,1.1252281 0 0 0 1.12552,-1.125512 1.1252281,1.1252281 0 0 0 -1.12552,-1.124997 z m 3.05511,0 a 1.1252281,1.1252281 0 0 0 -1.12551,1.124997 1.1252281,1.1252281 0 0 0 1.12551,1.125512 1.1252281,1.1252281 0 0 0 1.125,-1.125512 1.1252281,1.1252281 0 0 0 -1.125,-1.124997 z" />
  </g>
</svg>
